<svg width="24" height="24" viewBox="0 0 24 24" fill="none" xmlns="http://www.w3.org/2000/svg">
<path d="M18.1499 9.14477L17.8499 18.225C17.8243 19.0027 17.4967 19.7398 16.9366 20.2799C16.3765 20.82 15.628 21.1205 14.8499 21.1178H9.1499C8.37232 21.1206 7.62421 20.8204 7.06418 20.281C6.50415 19.7415 6.17622 19.0052 6.1499 18.228L5.8499 9.14477C5.84333 8.94586 5.91606 8.75249 6.05207 8.60719C6.18808 8.4619 6.37624 8.37659 6.57515 8.37002C6.77406 8.36346 6.96743 8.43618 7.11273 8.57219C7.25802 8.7082 7.34333 8.89636 7.3499 9.09527L7.6499 18.1778C7.66484 18.5655 7.82944 18.9324 8.10914 19.2013C8.38885 19.4702 8.76188 19.6203 9.1499 19.62H14.8499C15.2384 19.6203 15.6119 19.4698 15.8917 19.2002C16.1714 18.9306 16.3357 18.563 16.3499 18.1748L16.6499 9.09527C16.6565 8.89636 16.7418 8.7082 16.8871 8.57219C17.0324 8.43618 17.2257 8.36346 17.4246 8.37002C17.6236 8.37659 17.8117 8.4619 17.9477 8.60719C18.0837 8.75249 18.1565 8.94586 18.1499 9.14477ZM19.1421 6.12302C19.1421 6.32194 19.0631 6.5127 18.9225 6.65335C18.7818 6.79401 18.5911 6.87302 18.3921 6.87302H5.6084C5.40949 6.87302 5.21872 6.79401 5.07807 6.65335C4.93742 6.5127 4.8584 6.32194 4.8584 6.12302C4.8584 5.92411 4.93742 5.73335 5.07807 5.59269C5.21872 5.45204 5.40949 5.37302 5.6084 5.37302H7.9334C8.17103 5.37366 8.40041 5.28587 8.57688 5.12672C8.75336 4.96757 8.86431 4.74846 8.88815 4.51202C8.94349 3.95739 9.20334 3.44322 9.61707 3.0697C10.0308 2.69619 10.5688 2.49007 11.1261 2.49152H12.8736C13.431 2.49007 13.969 2.69619 14.3827 3.0697C14.7965 3.44322 15.0563 3.95739 15.1116 4.51202C15.1355 4.74846 15.2464 4.96757 15.4229 5.12672C15.5994 5.28587 15.8288 5.37366 16.0664 5.37302H18.3914C18.5903 5.37302 18.7811 5.45204 18.9217 5.59269C19.0624 5.73335 19.1414 5.92411 19.1414 6.12302H19.1421ZM10.1901 5.37302H13.8111C13.7126 5.14783 13.6481 4.90921 13.6199 4.66502C13.6013 4.48015 13.5148 4.30876 13.377 4.18406C13.2393 4.05935 13.0602 3.99021 12.8744 3.99002H11.1269C10.9411 3.99021 10.762 4.05935 10.6242 4.18406C10.4865 4.30876 10.4 4.48015 10.3814 4.66502C10.3529 4.90925 10.289 5.14787 10.1901 5.37302ZM10.9454 16.7363V10.35C10.9454 10.1511 10.8664 9.96035 10.7257 9.81969C10.5851 9.67904 10.3943 9.60002 10.1954 9.60002C9.99649 9.60002 9.80572 9.67904 9.66507 9.81969C9.52442 9.96035 9.4454 10.1511 9.4454 10.35V16.7393C9.4454 16.9382 9.52442 17.129 9.66507 17.2696C9.80572 17.4103 9.99649 17.4893 10.1954 17.4893C10.3943 17.4893 10.5851 17.4103 10.7257 17.2696C10.8664 17.129 10.9454 16.9382 10.9454 16.7393V16.7363ZM14.5559 16.7363V10.35C14.5559 10.1511 14.4769 9.96035 14.3362 9.81969C14.1956 9.67904 14.0048 9.60002 13.8059 9.60002C13.607 9.60002 13.4162 9.67904 13.2756 9.81969C13.1349 9.96035 13.0559 10.1511 13.0559 10.35V16.7393C13.0559 16.9382 13.1349 17.129 13.2756 17.2696C13.4162 17.4103 13.607 17.4893 13.8059 17.4893C14.0048 17.4893 14.1956 17.4103 14.3362 17.2696C14.4769 17.129 14.5559 16.9382 14.5559 16.7393V16.7363Z" fill="black"/>
</svg>
