<svg width="24" height="24" viewBox="0 0 24 24" fill="none" xmlns="http://www.w3.org/2000/svg">
<g clip-path="url(#clip0_6_2614)">
<path fill-rule="evenodd" clip-rule="evenodd" d="M12 9C12.4142 9 12.75 9.33579 12.75 9.75V13.5C12.75 13.9142 12.4142 14.25 12 14.25C11.5858 14.25 11.25 13.9142 11.25 13.5V9.75C11.25 9.33579 11.5858 9 12 9Z" fill="black"/>
<path fill-rule="evenodd" clip-rule="evenodd" d="M10.876 2.55082C11.2178 2.35374 11.6054 2.25 12 2.25C12.3945 2.25 12.7821 2.35374 13.1239 2.55082C13.4657 2.7479 13.7496 3.03139 13.9473 3.37285L13.3943 3.69293L13.9473 3.37285L22.1951 17.6221C22.393 17.9641 22.4974 18.3522 22.4978 18.7474C22.4981 19.1426 22.3943 19.5309 22.1969 19.8732C21.9995 20.2155 21.7155 20.4999 21.3733 20.6975C21.0311 20.8952 20.6429 20.9993 20.2477 20.9993H3.7522C3.35703 20.9993 2.96883 20.8952 2.62666 20.6975C2.28449 20.4998 2.00042 20.2155 1.80302 19.8732C1.60563 19.5309 1.50187 19.1426 1.5022 18.7474C1.50252 18.3522 1.60692 17.9641 1.80488 17.6221L10.0527 3.37285C10.2503 3.03139 10.5343 2.7479 10.876 2.55082ZM12 3.75C11.8685 3.75 11.7393 3.78458 11.6253 3.85027C11.5114 3.91597 11.4167 4.01046 11.3509 4.12428L3.10309 18.3736C3.03711 18.4876 3.00231 18.6169 3.0022 18.7487C3.00209 18.8804 3.03667 19.0098 3.10247 19.1239C3.16827 19.238 3.26296 19.3328 3.37702 19.3987C3.49108 19.4646 3.62048 19.4993 3.7522 19.4993H20.2478C20.3795 19.4993 20.5089 19.4646 20.6229 19.3987C20.737 19.3328 20.8317 19.238 20.8975 19.1239C20.9633 19.0098 20.9979 18.8804 20.9978 18.7487C20.9976 18.6169 20.9628 18.4876 20.8969 18.3736L12.6491 4.12428C12.5832 4.01046 12.4885 3.91597 12.3746 3.85027C12.2607 3.78458 12.1315 3.75 12 3.75Z" fill="black"/>
<path d="M12 18C12.6213 18 13.125 17.4963 13.125 16.875C13.125 16.2537 12.6213 15.75 12 15.75C11.3787 15.75 10.875 16.2537 10.875 16.875C10.875 17.4963 11.3787 18 12 18Z" fill="black"/>
</g>
<defs>
<clipPath id="clip0_6_2614">
<rect width="24" height="24" fill="white"/>
</clipPath>
</defs>
</svg>
